<svg width="6" height="10" fill="#212C42" viewBox="0 0 6 10" version="1.1" xmlns="http://www.w3.org/2000/svg" xmlns:xlink="http://www.w3.org/1999/xlink">
    <g id="left-datepicker-arrowCanvas">
        <g id="left-datepicker-arrowFill 3.4">
            <path fill-rule="evenodd" clip-rule="evenodd" d="M 1.88672 0.331075C 1.88672 0.331075 1.88672 0.331075 1.88672 0.331075C 1.45462 -0.110358 0.756182 -0.110358 0.324078 0.331075C -0.108026 0.772509 -0.108026 1.48603 0.324078 1.92746C 0.324078 1.92746 0.324078 1.92746 0.324078 1.92746L 1.96252 3.60128C 2.72363 4.37883 2.72352 5.62219 1.96226 6.3996L 0.324206 8.07241C 0.324121 8.07249 0.324034 8.07258 0.323949 8.07267C -0.108026 8.51411 -0.107983 9.22866 0.324078 9.66892C 0.756148 10.1103 1.45451 10.1104 1.88662 9.66903C 1.88669 9.66896 1.88676 9.66889 1.88683 9.66882L 5.67431 5.80069C 5.67557 5.7994 5.67683 5.79811 5.67809 5.79681C 5.89233 5.57579 6 5.28874 6 5.00056C 6 4.71154 5.8917 4.42252 5.6762 4.20237L 1.88672 0.331075Z" transform="translate(6 10) scale(-1)" />
        </g>
    </g>
</svg>

